<?xml version="1.0" encoding="utf-8" standalone="no"?><!DOCTYPE svg PUBLIC "-//W3C//DTD SVG 20010904//EN" "http://www.w3.org/TR/2001/REC-SVG-20010904/DTD/svg10.dtd"><svg xmlns="http://www.w3.org/2000/svg" width="84" height="499" xmlns:xlink="http://www.w3.org/1999/xlink"><source><![CDATA[Created with Raphaël 2.1.2pntpossatpossestposraim_fdeestvelend]]></source><desc style="-webkit-tap-highlight-color: rgba(0, 0, 0, 0);">Created with Raphaël 2.1.2</desc><defs style="-webkit-tap-highlight-color: rgba(0, 0, 0, 0);"><path id="raphael-marker-block-obj1" style="-webkit-tap-highlight-color: rgba(0, 0, 0, 0);" stroke-linecap="round" d="M 5 0 L 0 2.5 L 5 5 Z"></path><marker id="raphael-marker-endblock33-obj2" style="-webkit-tap-highlight-color: rgba(0, 0, 0, 0);" refX="1.5" refY="1.5" markerWidth="3" markerHeight="3" orient="auto"><use style="-webkit-tap-highlight-color: rgba(0, 0, 0, 0);" fill="black" stroke="none" stroke-width="1.6667" transform="rotate(180 1.5 1.5) scale(0.6)" xmlns:xlink="http://www.w3.org/1999/xlink" xlink:href="#raphael-marker-block-obj1"></use></marker></defs><rect class="flowchart" id="st" style="-webkit-tap-highlight-color: rgba(0, 0, 0, 0);" fill="#ffffff" stroke="#000000" stroke-width="2" transform="matrix(1, 0, 0, 1, 10.665, 4)" x="0" y="0" width="65.03" height="37.25" rx="20" ry="20" r="20"></rect><text class="flowchartt" id="stt" font-size="15px" style="font: 15px &quot;Arial&quot;; font-size-adjust: none; font-stretch: normal; text-anchor: start; -webkit-tap-highlight-color: rgba(0, 0, 0, 0);" fill="#000000" stroke="none" stroke-width="1" text-anchor="start" transform="matrix(1, 0, 0, 1, 10.665, 4)" x="10" y="18.625" font="10px &quot;Arial&quot;"><tspan style="-webkit-tap-highlight-color: rgba(0, 0, 0, 0);" dy="5.2">pntpos</tspan></text><rect class="flowchart" id="satposs_" style="-webkit-tap-highlight-color: rgba(0, 0, 0, 0);" fill="#ffffff" stroke="#000000" stroke-width="2" transform="matrix(1, 0, 0, 1, 7.335, 95.25)" x="0" y="0" width="71.69" height="37.25" rx="0" ry="0" r="0"></rect><text class="flowchartt" id="satposs_t" font-size="15px" style="font: 15px &quot;Arial&quot;; font-size-adjust: none; font-stretch: normal; text-anchor: start; -webkit-tap-highlight-color: rgba(0, 0, 0, 0);" fill="#000000" stroke="none" stroke-width="1" text-anchor="start" transform="matrix(1, 0, 0, 1, 7.335, 95.25)" x="10" y="18.625" font="10px &quot;Arial&quot;"><tspan style="-webkit-tap-highlight-color: rgba(0, 0, 0, 0);" dy="5.2">satposs</tspan></text><rect class="flowchart" id="estpos_" style="-webkit-tap-highlight-color: rgba(0, 0, 0, 0);" fill="#ffffff" stroke="#000000" stroke-width="2" transform="matrix(1, 0, 0, 1, 11.085, 186.5)" x="0" y="0" width="64.19" height="37.25" rx="0" ry="0" r="0"></rect><text class="flowchartt" id="estpos_t" font-size="15px" style="font: 15px &quot;Arial&quot;; font-size-adjust: none; font-stretch: normal; text-anchor: start; -webkit-tap-highlight-color: rgba(0, 0, 0, 0);" fill="#000000" stroke="none" stroke-width="1" text-anchor="start" transform="matrix(1, 0, 0, 1, 11.085, 186.5)" x="10" y="18.625" font="10px &quot;Arial&quot;"><tspan style="-webkit-tap-highlight-color: rgba(0, 0, 0, 0);" dy="5.2">estpos</tspan></text><rect class="flowchart" id="raim_fde_" style="-webkit-tap-highlight-color: rgba(0, 0, 0, 0);" fill="#ffffff" stroke="#000000" stroke-width="2" transform="matrix(1, 0, 0, 1, 4, 277.75)" x="0" y="0" width="78.36" height="37.25" rx="0" ry="0" r="0"></rect><text class="flowchartt" id="raim_fde_t" font-size="15px" style="font: 15px &quot;Arial&quot;; font-size-adjust: none; font-stretch: normal; text-anchor: start; -webkit-tap-highlight-color: rgba(0, 0, 0, 0);" fill="#000000" stroke="none" stroke-width="1" text-anchor="start" transform="matrix(1, 0, 0, 1, 4, 277.75)" x="10" y="18.625" font="10px &quot;Arial&quot;"><tspan style="-webkit-tap-highlight-color: rgba(0, 0, 0, 0);" dy="5.2">raim_fde</tspan></text><rect class="flowchart" id="estvel_" style="-webkit-tap-highlight-color: rgba(0, 0, 0, 0);" fill="#ffffff" stroke="#000000" stroke-width="2" transform="matrix(1, 0, 0, 1, 13.59, 369)" x="0" y="0" width="59.18" height="37.25" rx="0" ry="0" r="0"></rect><text class="flowchartt" id="estvel_t" font-size="15px" style="font: 15px &quot;Arial&quot;; font-size-adjust: none; font-stretch: normal; text-anchor: start; -webkit-tap-highlight-color: rgba(0, 0, 0, 0);" fill="#000000" stroke="none" stroke-width="1" text-anchor="start" transform="matrix(1, 0, 0, 1, 13.59, 369)" x="10" y="18.625" font="10px &quot;Arial&quot;"><tspan style="-webkit-tap-highlight-color: rgba(0, 0, 0, 0);" dy="5.2">estvel</tspan></text><rect class="flowchart" id="e" style="-webkit-tap-highlight-color: rgba(0, 0, 0, 0);" fill="#ffffff" stroke="#000000" stroke-width="2" transform="matrix(1, 0, 0, 1, 20.67, 460.25)" x="0" y="0" width="45.02" height="37.25" rx="20" ry="20" r="20"></rect><text class="flowchartt" id="et" font-size="15px" style="font: 15px &quot;Arial&quot;; font-size-adjust: none; font-stretch: normal; text-anchor: start; -webkit-tap-highlight-color: rgba(0, 0, 0, 0);" fill="#000000" stroke="none" stroke-width="1" text-anchor="start" transform="matrix(1, 0, 0, 1, 20.67, 460.25)" x="10" y="18.625" font="10px &quot;Arial&quot;"><tspan style="-webkit-tap-highlight-color: rgba(0, 0, 0, 0);" dy="5.2">end</tspan><tspan style="-webkit-tap-highlight-color: rgba(0, 0, 0, 0);" x="10" dy="18"></tspan></text><path style="-webkit-tap-highlight-color: rgba(0, 0, 0, 0);" fill="none" marker-end="url(&quot;#raphael-marker-endblock33-obj2&quot;)" stroke="#000000" stroke-width="2" d="M 43.18 41.25 C 43.18 41.25 43.18 80.9041 43.18 92.2504"></path><path style="-webkit-tap-highlight-color: rgba(0, 0, 0, 0);" fill="none" marker-end="url(&quot;#raphael-marker-endblock33-obj2&quot;)" stroke="#000000" stroke-width="2" d="M 43.18 132.5 C 43.18 132.5 43.18 172.154 43.18 183.5"></path><path style="-webkit-tap-highlight-color: rgba(0, 0, 0, 0);" fill="none" marker-end="url(&quot;#raphael-marker-endblock33-obj2&quot;)" stroke="#000000" stroke-width="2" d="M 43.18 223.75 C 43.18 223.75 43.18 263.404 43.18 274.75"></path><path style="-webkit-tap-highlight-color: rgba(0, 0, 0, 0);" fill="none" marker-end="url(&quot;#raphael-marker-endblock33-obj2&quot;)" stroke="#000000" stroke-width="2" d="M 43.18 315 C 43.18 315 43.18 354.654 43.18 366"></path><path style="-webkit-tap-highlight-color: rgba(0, 0, 0, 0);" fill="none" marker-end="url(&quot;#raphael-marker-endblock33-obj2&quot;)" stroke="#000000" stroke-width="2" d="M 43.18 406.25 C 43.18 406.25 43.18 445.904 43.18 457.25"></path></svg>